<svg width="165" height="36" viewBox="0 0 165 36" fill="none" xmlns="http://www.w3.org/2000/svg">
<path d="M49.5573 27.9195C47.9673 27.9195 46.5323 27.4995 45.2523 26.6595C43.9723 25.8195 42.9523 24.6495 42.1923 23.1495C41.4423 21.6395 41.0673 19.8795 41.0673 17.8695C41.0673 16.2795 41.2973 14.8545 41.7573 13.5945C42.2273 12.3345 42.8773 11.2595 43.7073 10.3695C44.5373 9.47951 45.5123 8.80451 46.6323 8.34451C47.7523 7.87451 48.9673 7.63951 50.2773 7.63951C52.0973 7.63951 53.6223 8.03451 54.8523 8.82451C56.0923 9.61451 57.0573 10.8595 57.7473 12.5595L54.1173 13.3995C53.6073 12.5695 53.0173 11.9395 52.3473 11.5095C51.6873 11.0695 50.9373 10.8495 50.0973 10.8495C49.1373 10.8495 48.2623 11.1345 47.4723 11.7045C46.6823 12.2645 46.0523 13.0695 45.5823 14.1195C45.1123 15.1695 44.8773 16.4195 44.8773 17.8695C44.8773 19.2295 45.0823 20.4195 45.4923 21.4395C45.9123 22.4595 46.4973 23.2545 47.2473 23.8245C47.9973 24.3945 48.8673 24.6795 49.8573 24.6795C50.6973 24.6795 51.4473 24.4945 52.1073 24.1245C52.7773 23.7445 53.3023 23.2045 53.6823 22.5045C54.0723 21.8045 54.2673 20.9595 54.2673 19.9695H55.0473C55.0473 21.5895 54.8523 22.9945 54.4623 24.1845C54.0823 25.3745 53.4873 26.2945 52.6773 26.9445C51.8673 27.5945 50.8273 27.9195 49.5573 27.9195ZM54.7773 27.4995L54.2673 23.2095V19.8495L49.8873 19.7595V17.5095H57.6573V27.4995H54.7773ZM67.5801 27.9195C66.2501 27.9195 65.0451 27.6345 63.9651 27.0645C62.8951 26.4945 62.0451 25.6445 61.4151 24.5145C60.7851 23.3745 60.4701 21.9495 60.4701 20.2395C60.4701 18.4995 60.7851 17.0595 61.4151 15.9195C62.0451 14.7795 62.8951 13.9295 63.9651 13.3695C65.0451 12.8095 66.2501 12.5295 67.5801 12.5295C68.8901 12.5295 70.0751 12.8095 71.1351 13.3695C72.2051 13.9295 73.0551 14.7795 73.6851 15.9195C74.3151 17.0595 74.6301 18.4995 74.6301 20.2395C74.6301 21.9495 74.3151 23.3745 73.6851 24.5145C73.0551 25.6445 72.2051 26.4945 71.1351 27.0645C70.0751 27.6345 68.8901 27.9195 67.5801 27.9195ZM67.4601 24.8295C68.1601 24.8295 68.7801 24.6595 69.3201 24.3195C69.8701 23.9695 70.3001 23.4545 70.6101 22.7745C70.9301 22.0945 71.0901 21.2495 71.0901 20.2395C71.0901 18.6995 70.7851 17.5395 70.1751 16.7595C69.5751 15.9795 68.7501 15.5895 67.7001 15.5895C66.9901 15.5895 66.3601 15.7645 65.8101 16.1145C65.2601 16.4545 64.8251 16.9695 64.5051 17.6595C64.1951 18.3495 64.0401 19.2095 64.0401 20.2395C64.0401 21.7595 64.3451 22.9045 64.9551 23.6745C65.5751 24.4445 66.4101 24.8295 67.4601 24.8295ZM75.5123 12.9495H79.5923L83.0723 24.4695H82.8023L86.2823 12.9495H90.3623L84.9323 27.4995H80.9423L75.5123 12.9495ZM101.869 27.4995L101.419 23.9595V18.1095C101.419 17.0895 101.209 16.3345 100.789 15.8445C100.379 15.3545 99.6789 15.1095 98.6889 15.1095C98.1189 15.1095 97.6239 15.1945 97.2039 15.3645C96.7839 15.5345 96.4589 15.7795 96.2289 16.0995C96.0089 16.4095 95.8989 16.7895 95.8989 17.2395H92.0289C92.0289 16.1395 92.2939 15.2445 92.8239 14.5545C93.3539 13.8545 94.1139 13.3445 95.1039 13.0245C96.1039 12.6945 97.2989 12.5295 98.6889 12.5295C99.9489 12.5295 101.049 12.7345 101.989 13.1445C102.929 13.5445 103.659 14.1645 104.179 15.0045C104.699 15.8445 104.959 16.9195 104.959 18.2295V27.4995H101.869ZM97.0989 27.9195C95.8489 27.9195 94.8039 27.7045 93.9639 27.2745C93.1339 26.8345 92.5089 26.2595 92.0889 25.5495C91.6689 24.8395 91.4589 24.0695 91.4589 23.2395C91.4589 22.3195 91.6989 21.5495 92.1789 20.9295C92.6689 20.2995 93.3589 19.8295 94.2489 19.5195C95.1389 19.1995 96.1889 19.0395 97.3989 19.0395C98.1889 19.0395 98.9339 19.0995 99.6339 19.2195C100.344 19.3395 101.049 19.4995 101.749 19.6995V21.7695C101.199 21.5895 100.599 21.4495 99.9489 21.3495C99.2989 21.2495 98.6889 21.1995 98.1189 21.1995C97.2789 21.1995 96.5889 21.3545 96.0489 21.6645C95.5089 21.9745 95.2389 22.4995 95.2389 23.2395C95.2389 23.7795 95.4589 24.2445 95.8989 24.6345C96.3389 25.0245 97.0389 25.2195 97.9989 25.2195C98.7289 25.2195 99.3489 25.0595 99.8589 24.7395C100.369 24.4195 100.754 24.0195 101.014 23.5395C101.284 23.0595 101.419 22.5795 101.419 22.0995H102.259C102.259 23.1495 102.064 24.1195 101.674 25.0095C101.284 25.8895 100.704 26.5945 99.9339 27.1245C99.1739 27.6545 98.2289 27.9195 97.0989 27.9195ZM109.248 27.4995V12.8895H112.788V27.4995H109.248ZM111.918 21.1095C111.918 19.1995 112.133 17.6195 112.563 16.3695C112.993 15.1195 113.568 14.1945 114.288 13.5945C115.018 12.9845 115.828 12.6795 116.718 12.6795C116.958 12.6795 117.183 12.6945 117.393 12.7245C117.613 12.7545 117.828 12.7995 118.038 12.8595L117.978 16.3995C117.718 16.3395 117.438 16.2895 117.138 16.2495C116.838 16.2095 116.568 16.1895 116.328 16.1895C115.548 16.1895 114.893 16.3795 114.363 16.7595C113.843 17.1295 113.448 17.6795 113.178 18.4095C112.918 19.1395 112.788 20.0395 112.788 21.1095H111.918ZM130.565 27.4995V19.0695C130.565 17.6995 130.235 16.6595 129.575 15.9495C128.925 15.2295 128.035 14.8695 126.905 14.8695C126.045 14.8695 125.3 15.1045 124.67 15.5745C124.04 16.0445 123.555 16.7195 123.215 17.5995C122.875 18.4695 122.705 19.5095 122.705 20.7195H121.805C121.805 19.0495 122.025 17.6245 122.465 16.4445C122.905 15.2645 123.545 14.3645 124.385 13.7445C125.235 13.1145 126.265 12.7995 127.475 12.7995C128.605 12.7995 129.57 13.0545 130.37 13.5645C131.18 14.0645 131.8 14.7845 132.23 15.7245C132.66 16.6645 132.875 17.7795 132.875 19.0695V27.4995H130.565ZM120.365 27.4995V13.1595H122.375L122.705 16.4595V27.4995H120.365ZM142.551 27.8595C141.311 27.8595 140.201 27.5445 139.221 26.9145C138.251 26.2745 137.481 25.3895 136.911 24.2595C136.351 23.1295 136.071 21.8295 136.071 20.3595C136.071 18.7895 136.351 17.4395 136.911 16.3095C137.471 15.1795 138.236 14.3145 139.206 13.7145C140.186 13.1045 141.301 12.7995 142.551 12.7995C143.641 12.7995 144.571 13.0195 145.341 13.4595C146.111 13.8995 146.731 14.4945 147.201 15.2445C147.671 15.9945 147.996 16.8445 148.176 17.7945C148.366 18.7345 148.421 19.7095 148.341 20.7195H137.961V19.2795H146.796L146.106 19.7295C146.136 19.1395 146.101 18.5495 146.001 17.9595C145.911 17.3695 145.736 16.8295 145.476 16.3395C145.216 15.8395 144.851 15.4395 144.381 15.1395C143.911 14.8395 143.311 14.6895 142.581 14.6895C141.661 14.6895 140.891 14.9245 140.271 15.3945C139.651 15.8645 139.186 16.4845 138.876 17.2545C138.566 18.0145 138.411 18.8395 138.411 19.7295V20.6895C138.411 21.6895 138.561 22.5845 138.861 23.3745C139.171 24.1645 139.631 24.7895 140.241 25.2495C140.851 25.7095 141.621 25.9395 142.551 25.9395C143.481 25.9395 144.246 25.7145 144.846 25.2645C145.446 24.8145 145.811 24.1495 145.941 23.2695H148.371C148.221 24.2195 147.881 25.0395 147.351 25.7295C146.821 26.4095 146.146 26.9345 145.326 27.3045C144.506 27.6745 143.581 27.8595 142.551 27.8595ZM149.831 27.4995L155.261 20.3295L149.831 13.1295H152.681L156.791 18.5595L160.751 13.1295H163.601L158.141 20.3295L163.571 27.4995H160.721L156.611 22.0395L152.681 27.4995H149.831Z" fill="white"/>
<path fill-rule="evenodd" clip-rule="evenodd" d="M15.2611 2.18208C15.074 2.07661 14.8459 2.07431 14.6566 2.17598L7.54568 5.99677C7.34236 6.10601 7.21553 6.31814 7.21553 6.54894V11.2307L3.28287 13.2148C3.07161 13.3214 2.93838 13.5378 2.93838 13.7744V28.5174H1.37494C1.02875 28.5174 0.748108 28.7981 0.748108 29.1443V29.7134C0.748108 30.0596 1.02875 30.3402 1.37494 30.3402H29.0343C29.3805 30.3402 29.6612 30.0596 29.6612 29.7134V29.1443C29.6612 28.7981 29.3805 28.5174 29.0343 28.5174H27.0636V9.20059C27.0636 8.97433 26.9416 8.76562 26.7445 8.65453L15.3975 2.25899L15.2611 2.18208ZM9.03831 10.3111V7.264L14.9395 4.09321L25.2408 9.89935V28.5174H22.5765V15.94C22.5765 15.5938 22.2959 15.3131 21.9497 15.3131H7.91383C7.56764 15.3131 7.287 15.5938 7.287 15.94V25.2649C7.287 25.6111 7.56764 25.8918 7.91383 25.8918H8.48295C8.82914 25.8918 9.10978 25.6111 9.10978 25.2649V17.1359H20.7538V28.5174H18.4203V22.4442C18.4203 22.098 18.1396 21.8173 17.7934 21.8173H12.3533C12.0071 21.8173 11.7265 22.098 11.7265 22.4442V28.5174H4.76116V14.5106L14.2423 9.72726V12.4527C14.2423 12.7989 14.523 13.0795 14.8692 13.0795H15.4383C15.7845 13.0795 16.0651 12.7989 16.0651 12.4527V7.78437C16.0651 7.31741 15.5728 7.01439 15.1559 7.22473L9.03831 10.3111ZM13.5493 28.5174V23.6401H16.5975V28.5174H13.5493ZM3.84978 29.0019C3.84978 29.002 3.84978 29.002 3.84978 29.002ZM12.6379 29.0019C12.6379 29.002 12.6379 29.002 12.6379 29.002ZM17.5089 29.0019C17.5089 29.002 17.5089 29.002 17.5089 29.002ZM21.6652 29.0019C21.6652 29.002 21.6652 29.002 21.6652 29.002ZM26.1522 29.0019C26.1522 29.002 26.1522 29.002 26.1522 29.002Z" fill="white"/>
</svg>
